<svg width="140" height="29" viewBox="0 0 140 29" fill="none" xmlns="http://www.w3.org/2000/svg">
<path fill-rule="evenodd" clip-rule="evenodd" d="M0.529798 4.87651C0 6.15556 0 7.77703 0 11.02V17.98C0 21.2229 0 22.8444 0.529798 24.1235C1.2362 25.8289 2.59113 27.1838 4.29652 27.8902C5.57557 28.42 7.19704 28.42 10.44 28.42H17.4C20.643 28.42 22.2644 28.42 23.5435 27.8902C25.2489 27.1838 26.6038 25.8289 27.3102 24.1235C27.84 22.8444 27.84 21.2229 27.84 17.98V11.02C27.84 7.77703 27.84 6.15556 27.3102 4.87651C26.6038 3.17111 25.2489 1.81618 23.5435 1.10979C22.2644 0.579987 20.643 0.579987 17.4 0.579987H10.44C7.19705 0.579987 5.57557 0.579987 4.29652 1.10979C2.59113 1.81618 1.2362 3.17111 0.529798 4.87651ZM13.6008 6.81503C12.6435 6.81503 11.8811 7.06767 11.2911 7.48724C10.7071 7.90247 10.3383 8.44798 10.1061 8.96473C9.87503 9.47911 9.77069 9.98344 9.7227 10.3519C9.69845 10.5381 9.68794 10.6947 9.68354 10.8074C9.68133 10.8638 9.68064 10.9096 9.68056 10.9431C9.68051 10.9598 9.68062 10.9734 9.68076 10.9838L9.68088 10.9906V12.4588C9.68088 13.2074 10.2917 13.8025 11.0305 13.8025H18.1585C18.627 13.8025 18.995 14.1768 18.995 14.6241V18.3667C18.995 19.6682 17.9279 20.735 16.5969 20.735H10.6631C9.3321 20.735 8.265 19.6682 8.265 18.3667V14.001C8.265 13.8979 8.35131 13.8025 8.47243 13.8025C8.87284 13.8025 9.19744 13.4779 9.19744 13.0775C9.19744 12.677 8.87284 12.3525 8.47243 12.3525C7.56362 12.3525 6.815 13.084 6.815 14.001V18.3667C6.815 20.482 8.5444 22.185 10.6631 22.185H16.5969C18.7156 22.185 20.445 20.482 20.445 18.3667V14.6241C20.445 13.363 19.4147 12.3525 18.1585 12.3525H11.1309V10.9836L11.1306 10.9636L11.1306 10.9637L11.1306 10.9633L11.1425 10.7054C11.1468 10.6555 11.1527 10.5997 11.1606 10.5392C11.1967 10.262 11.2731 9.90545 11.4288 9.55894C11.5834 9.21479 11.8073 8.8994 12.1314 8.66895C12.4493 8.44284 12.9103 8.26503 13.6008 8.26503C14.8808 8.26503 15.4475 8.74172 15.7416 9.22528C16.0743 9.77247 16.1394 10.4658 16.1394 10.9836C16.1394 11.384 16.4639 11.7086 16.8644 11.7086C17.2648 11.7086 17.5894 11.384 17.5894 10.9836C17.5894 10.3995 17.5272 9.37105 16.9805 8.47192C16.3951 7.50916 15.33 6.81503 13.6008 6.81503ZM11.1424 10.7064L11.2911 7.48724L11.1425 10.7054C11.1425 10.7057 11.1425 10.7061 11.1424 10.7064ZM11.1424 10.7064L11.1306 10.9624L11.1306 10.9469C11.1306 10.9298 11.131 10.9017 11.1324 10.864C11.1341 10.8221 11.1371 10.7688 11.1424 10.7064ZM11.1306 10.9624L11.1306 10.9631L11.1306 10.9636L11.1306 10.9633L11.1306 10.9624Z" fill="#136DA2"/>
<path d="M39.7858 20.7666C38.9992 20.7666 38.2192 20.6347 37.4459 20.371C36.6726 20.1072 36.046 19.7117 35.566 19.1842C35.4194 19.026 35.3594 18.848 35.386 18.6502C35.4127 18.4524 35.5127 18.281 35.686 18.1359C35.8727 18.004 36.066 17.9513 36.266 17.9777C36.466 18.004 36.6326 18.0898 36.766 18.2348C37.0859 18.604 37.5059 18.8875 38.0259 19.0853C38.5592 19.2831 39.1458 19.382 39.7858 19.382C40.7724 19.382 41.4857 19.2172 41.9257 18.8875C42.3656 18.5447 42.5923 18.1359 42.6056 17.6612C42.6056 17.1865 42.379 16.7975 41.9257 16.4942C41.4723 16.1778 40.7257 15.9338 39.6858 15.7624C38.3392 15.5514 37.3526 15.1822 36.726 14.6547C36.0993 14.1273 35.786 13.501 35.786 12.7757C35.786 12.1032 35.966 11.5428 36.326 11.0945C36.686 10.6461 37.1659 10.3099 37.7659 10.0857C38.3659 9.86155 39.0258 9.74947 39.7458 9.74947C40.6391 9.74947 41.4057 9.90111 42.0456 10.2044C42.6989 10.5077 43.2256 10.9164 43.6256 11.4307C43.7589 11.6021 43.8122 11.7801 43.7855 11.9648C43.7589 12.1494 43.6522 12.301 43.4656 12.4197C43.3056 12.512 43.1189 12.5449 42.9056 12.5186C42.7056 12.479 42.5323 12.3801 42.3856 12.2219C42.0523 11.8395 41.6657 11.5626 41.2257 11.3912C40.7857 11.2065 40.2791 11.1142 39.7058 11.1142C38.9725 11.1142 38.3859 11.2659 37.9459 11.5692C37.5059 11.8593 37.2859 12.2285 37.2859 12.6768C37.2859 12.9801 37.3659 13.2438 37.5259 13.468C37.6992 13.6922 37.9859 13.8899 38.3859 14.0614C38.7992 14.2328 39.3725 14.3778 40.1058 14.4965C41.1057 14.6547 41.8923 14.8921 42.4656 15.2086C43.0523 15.5118 43.4656 15.8745 43.7055 16.2964C43.9589 16.7052 44.0855 17.1535 44.0855 17.6414C44.0855 18.2612 43.8989 18.8084 43.5256 19.2831C43.1656 19.7446 42.6589 20.1072 42.0056 20.371C41.3657 20.6347 40.6257 20.7666 39.7858 20.7666Z" fill="#64748B"/>
<path d="M49.1065 20.6677C48.5732 20.6677 48.0932 20.5226 47.6666 20.2325C47.2533 19.9424 46.9266 19.5402 46.6866 19.026C46.46 18.5117 46.3466 17.9183 46.3466 17.2458V5.97162C46.3466 5.74745 46.4133 5.56944 46.5466 5.43757C46.6933 5.29253 46.8799 5.22 47.1066 5.22C47.3332 5.22 47.5132 5.29253 47.6466 5.43757C47.7932 5.56944 47.8666 5.74745 47.8666 5.97162V17.2458C47.8666 17.8128 47.9799 18.2744 48.2065 18.6304C48.4465 18.9864 48.7465 19.1644 49.1065 19.1644H49.6064C49.8064 19.1644 49.9664 19.237 50.0864 19.382C50.2064 19.5139 50.2664 19.6919 50.2664 19.916C50.2664 20.1402 50.1797 20.3248 50.0064 20.4699C49.8464 20.6017 49.6331 20.6677 49.3665 20.6677H49.1065Z" fill="#64748B"/>
<path d="M53.7507 20.6677C53.5507 20.6677 53.3774 20.6017 53.2308 20.4699C53.0841 20.3248 53.0108 20.1336 53.0108 19.8963V9.86815C53.0108 8.94511 53.1708 8.13416 53.4907 7.43529C53.8107 6.73642 54.284 6.19578 54.9107 5.81338C55.5373 5.41779 56.3039 5.22 57.2105 5.22C57.4372 5.22 57.6238 5.28593 57.7705 5.41779C57.9172 5.54966 57.9905 5.71448 57.9905 5.91228C57.9905 6.11007 57.9172 6.2749 57.7705 6.40676C57.6238 6.53862 57.4372 6.60455 57.2105 6.60455C56.6106 6.60455 56.1106 6.74301 55.7106 7.01992C55.324 7.28365 55.0307 7.65945 54.8307 8.14734C54.644 8.62205 54.5507 9.16928 54.5507 9.78903V19.8963C54.5507 20.1336 54.4774 20.3248 54.3307 20.4699C54.1974 20.6017 54.0041 20.6677 53.7507 20.6677ZM51.7309 11.5692C51.5175 11.5692 51.3442 11.5098 51.2109 11.3912C51.0909 11.2593 51.0309 11.1011 51.0309 10.9164C51.0309 10.7187 51.0909 10.5604 51.2109 10.4417C51.3442 10.3099 51.5175 10.244 51.7309 10.244H56.9505C57.1639 10.244 57.3305 10.3099 57.4505 10.4417C57.5838 10.5604 57.6505 10.7187 57.6505 10.9164C57.6505 11.1011 57.5838 11.2593 57.4505 11.3912C57.3305 11.5098 57.1639 11.5692 56.9505 11.5692H51.7309Z" fill="#64748B"/>
<path d="M35.6021 18.0171L35.6024 18.0175C35.8145 17.8676 36.0439 17.8021 36.2849 17.8339C36.5178 17.8646 36.7158 17.966 36.8727 18.1367L36.8756 18.1398L36.8755 18.1398C37.1777 18.4885 37.5765 18.7591 38.0769 18.9496C38.592 19.1406 39.1611 19.237 39.7858 19.237C40.7621 19.237 41.4358 19.0728 41.8376 18.7723C42.2487 18.4516 42.4481 18.0816 42.4606 17.6592C42.46 17.2416 42.2644 16.8953 41.845 16.6147L41.8426 16.6131L41.8426 16.6131C41.4168 16.3158 40.6969 16.0761 39.6627 15.9055C38.3057 15.6929 37.2887 15.3179 36.6326 14.7657C35.978 14.2147 35.641 13.5496 35.641 12.7757C35.641 12.0761 35.8289 11.482 36.2129 11.0037C36.591 10.5327 37.0936 10.1821 37.7151 9.94989C38.3332 9.71895 39.0106 9.60447 39.7458 9.60447C40.6548 9.60447 41.4436 9.75872 42.1072 10.0731C42.7789 10.385 43.3245 10.8075 43.74 11.3417C43.8932 11.5387 43.9623 11.7554 43.9291 11.9855C43.8952 12.2198 43.7584 12.4053 43.5434 12.542L43.5381 12.5454L43.538 12.5453C43.3464 12.6558 43.1271 12.6921 42.8878 12.6625L42.8774 12.6612L42.8775 12.6608C42.6456 12.615 42.4455 12.4997 42.2793 12.3205L42.2763 12.3172L42.2763 12.3172C41.9572 11.9511 41.5896 11.6886 41.1731 11.5263L41.1696 11.5249L41.1696 11.5249C40.7506 11.349 40.2636 11.2592 39.7058 11.2592C38.9912 11.2592 38.4365 11.4071 38.0282 11.6886L38.0257 11.6902L38.0257 11.6902C37.6181 11.9589 37.4309 12.2864 37.4309 12.6768C37.4309 12.952 37.5027 13.1849 37.6423 13.3815C37.7947 13.5774 38.0556 13.762 38.4422 13.9277C38.8404 14.0928 39.4007 14.2355 40.1285 14.3533C41.136 14.5127 41.9403 14.7534 42.534 15.0807C43.1348 15.3916 43.5723 15.7702 43.8302 16.2224C44.097 16.6538 44.2305 17.1279 44.2305 17.6414C44.2305 18.2927 44.0335 18.8717 43.6396 19.3726M35.6021 18.0171L43.5256 19.2831M35.6021 18.0171L35.593 18.0247C35.3958 18.1897 35.2745 18.3924 35.2423 18.6308C35.2094 18.8751 35.2862 19.0953 35.4592 19.2822M35.6021 18.0171L35.566 19.1842M43.6396 19.3726C43.6396 19.3726 43.6396 19.3727 43.6395 19.3727L43.5256 19.2831M43.6396 19.3726C43.6397 19.3725 43.6398 19.3724 43.6399 19.3723L43.5256 19.2831M43.6396 19.3726C43.2612 19.8577 42.7322 20.234 42.0604 20.5052M43.5256 19.2831C43.1656 19.7446 42.6589 20.1072 42.0056 20.371C41.3657 20.6347 40.6257 20.7666 39.7858 20.7666C38.9992 20.7666 38.2192 20.6347 37.4459 20.371C36.6726 20.1072 36.046 19.7117 35.566 19.1842M42.0604 20.5052C42.0606 20.5052 42.0607 20.5051 42.0609 20.505L42.0057 20.371L42.0599 20.5054C42.0601 20.5054 42.0603 20.5053 42.0604 20.5052ZM42.0604 20.5052C41.3997 20.7774 40.6405 20.9116 39.7858 20.9116C38.9826 20.9116 38.1869 20.7769 37.3991 20.5082C36.6063 20.2378 35.9578 19.8301 35.4592 19.2822M35.4592 19.2822C35.4593 19.2824 35.4595 19.2826 35.4597 19.2828L35.566 19.1842M35.4592 19.2822C35.459 19.2821 35.4589 19.2819 35.4588 19.2818L35.566 19.1842M47.5833 20.3512L47.585 20.3524C48.0366 20.6594 48.5451 20.8127 49.1065 20.8127H49.3665C49.657 20.8127 49.906 20.7405 50.0986 20.5818L50.0995 20.5811C50.3054 20.4087 50.4114 20.1835 50.4114 19.916C50.4114 19.6667 50.3444 19.4516 50.196 19.2869C50.0467 19.1081 49.8454 19.0194 49.6064 19.0194H49.1065C48.805 19.0194 48.5466 18.8747 48.3278 18.5509C48.1209 18.2251 48.0116 17.7936 48.0116 17.2458V5.97162C48.0116 5.71499 47.9267 5.49716 47.7486 5.33438C47.5841 5.15832 47.3647 5.075 47.1066 5.075C46.8459 5.075 46.6213 5.15981 46.4447 5.33448C46.2785 5.49881 46.2016 5.71684 46.2016 5.97162V17.2458C46.2016 17.9346 46.3177 18.5485 46.5539 19.0845L46.5539 19.0845L46.5552 19.0873C46.8046 19.6217 47.1467 20.0448 47.5833 20.3512ZM53.1288 20.573L53.1287 20.5731L53.1338 20.5777C53.3075 20.7339 53.5155 20.8127 53.7507 20.8127C54.0285 20.8127 54.2638 20.74 54.4327 20.573C54.6111 20.3965 54.6957 20.166 54.6957 19.8963V11.7142H56.9505C57.1915 11.7142 57.3986 11.6464 57.5525 11.4942C57.7129 11.3356 57.7955 11.1405 57.7955 10.9165C57.7955 10.6849 57.7165 10.4873 57.5526 10.3385C57.4002 10.1745 57.1932 10.099 56.9505 10.099H54.6957V9.78903C54.6957 9.18409 54.7867 8.65578 54.9652 8.20141C55.1558 7.73681 55.4323 7.3853 55.7923 7.13971L55.7932 7.13914C56.1637 6.88258 56.6331 6.74955 57.2105 6.74955C57.4673 6.74955 57.6902 6.67394 57.8674 6.51459C58.0448 6.35513 58.1355 6.15106 58.1355 5.91228C58.1355 5.67349 58.0448 5.46942 57.8674 5.30997C57.6902 5.15062 57.4673 5.075 57.2105 5.075C56.2831 5.075 55.4885 5.2774 54.8342 5.69018C54.1822 6.08833 53.6902 6.65143 53.3589 7.37492C53.0287 8.09615 52.8658 8.92839 52.8658 9.86815V10.099H51.7309C51.4851 10.099 51.2732 10.1762 51.1089 10.3387C50.9567 10.4892 50.8859 10.6871 50.8859 10.9165C50.8859 11.1357 50.9584 11.3292 51.1036 11.4887L51.1088 11.4944L51.1145 11.4995C51.2793 11.6462 51.4893 11.7142 51.7309 11.7142H52.8658V19.8963C52.8658 20.166 52.9504 20.3965 53.1288 20.573Z" stroke="#64748B" stroke-width="0.29"/>
<mask id="path-4-outside-1_5199_10354" maskUnits="userSpaceOnUse" x="58.7085" y="5.40677" width="40" height="20" fill="black">
<rect fill="white" x="58.7085" y="5.40677" width="40" height="20"/>
<path d="M64.1144 20.7666C63.3278 20.7666 62.5478 20.6347 61.7745 20.371C61.0012 20.1073 60.3746 19.7117 59.8946 19.1842C59.748 19.026 59.688 18.848 59.7146 18.6502C59.7413 18.4524 59.8413 18.281 60.0146 18.1359C60.2013 18.0041 60.3946 17.9513 60.5946 17.9777C60.7946 18.0041 60.9612 18.0898 61.0946 18.2348C61.4146 18.604 61.8345 18.8875 62.3545 19.0853C62.8878 19.2831 63.4744 19.382 64.1144 19.382C65.101 19.382 65.8143 19.2172 66.2543 18.8875C66.6942 18.5447 66.9209 18.1359 66.9342 17.6612C66.9342 17.1865 66.7076 16.7975 66.2543 16.4942C65.801 16.1778 65.0543 15.9338 64.0144 15.7624C62.6678 15.5514 61.6812 15.1822 61.0546 14.6548C60.4279 14.1273 60.1146 13.501 60.1146 12.7757C60.1146 12.1032 60.2946 11.5428 60.6546 11.0945C61.0146 10.6461 61.4945 10.3099 62.0945 10.0857C62.6945 9.86156 63.3544 9.74948 64.0744 9.74948C64.9677 9.74948 65.7343 9.90112 66.3743 10.2044C67.0276 10.5077 67.5542 10.9165 67.9542 11.4307C68.0875 11.6021 68.1408 11.7802 68.1142 11.9648C68.0875 12.1494 67.9808 12.301 67.7942 12.4197C67.6342 12.512 67.4475 12.545 67.2342 12.5186C67.0342 12.479 66.8609 12.3801 66.7142 12.2219C66.3809 11.8395 65.9943 11.5626 65.5543 11.3912C65.1143 11.2066 64.6077 11.1143 64.0344 11.1143C63.3011 11.1143 62.7145 11.2659 62.2745 11.5692C61.8345 11.8593 61.6145 12.2285 61.6145 12.6768C61.6145 12.9801 61.6945 13.2438 61.8545 13.468C62.0278 13.6922 62.3145 13.89 62.7145 14.0614C63.1278 14.2328 63.7011 14.3778 64.4344 14.4965C65.4343 14.6548 66.2209 14.8921 66.7942 15.2086C67.3809 15.5119 67.7942 15.8745 68.0342 16.2964C68.2875 16.7052 68.4141 17.1535 68.4141 17.6414C68.4141 18.2612 68.2275 18.8084 67.8542 19.2831C67.4942 19.7446 66.9876 20.1073 66.3343 20.371C65.6943 20.6347 64.9543 20.7666 64.1144 20.7666Z"/>
<path d="M75.355 20.6677C74.6484 20.6677 74.0151 20.5028 73.4551 20.1732C72.9085 19.8435 72.4751 19.3952 72.1552 18.8282C71.8352 18.248 71.6752 17.5887 71.6752 16.8503V7.17816C71.6752 6.954 71.7419 6.76939 71.8752 6.62434C72.0218 6.47929 72.2085 6.40677 72.4352 6.40677C72.6618 6.40677 72.8485 6.47929 72.9951 6.62434C73.1418 6.76939 73.2151 6.954 73.2151 7.17816V16.8503C73.2151 17.5228 73.4151 18.0766 73.8151 18.5117C74.215 18.9337 74.7284 19.1447 75.355 19.1447H75.8949C76.1083 19.1447 76.2816 19.2172 76.4149 19.3622C76.5482 19.5073 76.6149 19.6919 76.6149 19.9161C76.6149 20.1402 76.5349 20.3248 76.3749 20.4699C76.2149 20.6017 76.0149 20.6677 75.775 20.6677H75.355ZM70.3753 11.5692C70.1753 11.5692 70.0086 11.5098 69.8753 11.3912C69.742 11.2593 69.6753 11.1011 69.6753 10.9165C69.6753 10.7187 69.742 10.5604 69.8753 10.4418C70.0086 10.3099 70.1753 10.244 70.3753 10.244H75.475C75.675 10.244 75.8416 10.3099 75.9749 10.4418C76.1083 10.5604 76.1749 10.7187 76.1749 10.9165C76.1749 11.1011 76.1083 11.2593 75.9749 11.3912C75.8416 11.5098 75.675 11.5692 75.475 11.5692H70.3753Z"/>
<path d="M79.7616 14.002C79.8016 13.1845 80.0149 12.4527 80.4016 11.8065C80.8015 11.1604 81.3148 10.6527 81.9415 10.2835C82.5814 9.9143 83.2881 9.7297 84.0613 9.7297C84.6746 9.7297 85.1479 9.81541 85.4813 9.98683C85.8146 10.1582 85.9412 10.4088 85.8612 10.7384C85.8079 10.9362 85.7146 11.0681 85.5813 11.134C85.4613 11.2 85.3079 11.2263 85.1213 11.2131C84.948 11.2 84.748 11.1868 84.5213 11.1736C83.7747 11.1077 83.1081 11.1868 82.5214 11.4109C81.9481 11.6219 81.4882 11.9516 81.1415 12.3999C80.8082 12.8482 80.6415 13.3823 80.6415 14.002H79.7616ZM79.8816 20.6677C79.6416 20.6677 79.4549 20.6017 79.3216 20.4699C79.1883 20.338 79.1216 20.1534 79.1216 19.9161V10.6C79.1216 10.3626 79.1883 10.178 79.3216 10.0462C79.4549 9.9143 79.6416 9.84837 79.8816 9.84837C80.1216 9.84837 80.3082 9.9143 80.4416 10.0462C80.5749 10.178 80.6415 10.3626 80.6415 10.6V19.9161C80.6415 20.1534 80.5749 20.338 80.4416 20.4699C80.3082 20.6017 80.1216 20.6677 79.8816 20.6677Z"/>
<path d="M92.3002 20.7666C91.247 20.7666 90.3137 20.5358 89.5004 20.0743C88.6871 19.5996 88.0471 18.9469 87.5805 18.1161C87.1272 17.2854 86.9005 16.336 86.9005 15.2679C86.9005 14.1866 87.1405 13.2306 87.6205 12.3999C88.1005 11.5692 88.7604 10.9231 89.6004 10.4615C90.4403 9.98683 91.3936 9.74948 92.4602 9.74948C93.5402 9.74948 94.4934 9.98683 95.3201 10.4615C96.16 10.9231 96.8133 11.5692 97.2799 12.3999C97.7599 13.2306 98.0066 14.1866 98.0199 15.2679L97.1199 15.7426C97.1199 16.7184 96.9133 17.5887 96.5 18.3535C96.0867 19.1051 95.5134 19.6985 94.7801 20.1336C94.0601 20.5556 93.2335 20.7666 92.3002 20.7666ZM92.5002 24.94C91.4469 24.94 90.5203 24.7422 89.7204 24.3466C88.9204 23.9642 88.2605 23.4368 87.7405 22.7643C87.5938 22.606 87.5272 22.4346 87.5405 22.25C87.5672 22.0654 87.6672 21.9138 87.8405 21.7951C88.0138 21.6764 88.2071 21.6369 88.4205 21.6764C88.6338 21.716 88.8004 21.8149 88.9204 21.9731C89.3071 22.4478 89.8004 22.8302 90.4003 23.1203C91.0136 23.4104 91.7203 23.5555 92.5202 23.5555C93.2668 23.5555 93.9401 23.3774 94.5401 23.0214C95.1401 22.6654 95.6134 22.1643 95.96 21.5182C96.32 20.8721 96.5 20.1138 96.5 19.2436V16.2371L97.0799 15.0899L98.0199 15.2679V19.3029C98.0199 20.371 97.7799 21.327 97.2999 22.1709C96.82 23.028 96.1667 23.7005 95.3401 24.1884C94.5134 24.6895 93.5668 24.94 92.5002 24.94ZM92.4602 19.382C93.2468 19.382 93.9401 19.2106 94.5401 18.8678C95.1534 18.5117 95.6334 18.0238 95.98 17.4041C96.3267 16.7843 96.5 16.0723 96.5 15.2679C96.5 14.4636 96.3267 13.7515 95.98 13.1317C95.6334 12.4988 95.1534 12.0109 94.5401 11.6681C93.9401 11.312 93.2468 11.134 92.4602 11.134C91.6736 11.134 90.9736 11.312 90.3603 11.6681C89.747 12.0109 89.2671 12.4988 88.9204 13.1317C88.5738 13.7515 88.4005 14.4636 88.4005 15.2679C88.4005 16.0723 88.5738 16.7843 88.9204 17.4041C89.2671 18.0238 89.747 18.5117 90.3603 18.8678C90.9736 19.2106 91.6736 19.382 92.4602 19.382Z"/>
</mask>
<path d="M64.1144 20.7666C63.3278 20.7666 62.5478 20.6347 61.7745 20.371C61.0012 20.1073 60.3746 19.7117 59.8946 19.1842C59.748 19.026 59.688 18.848 59.7146 18.6502C59.7413 18.4524 59.8413 18.281 60.0146 18.1359C60.2013 18.0041 60.3946 17.9513 60.5946 17.9777C60.7946 18.0041 60.9612 18.0898 61.0946 18.2348C61.4146 18.604 61.8345 18.8875 62.3545 19.0853C62.8878 19.2831 63.4744 19.382 64.1144 19.382C65.101 19.382 65.8143 19.2172 66.2543 18.8875C66.6942 18.5447 66.9209 18.1359 66.9342 17.6612C66.9342 17.1865 66.7076 16.7975 66.2543 16.4942C65.801 16.1778 65.0543 15.9338 64.0144 15.7624C62.6678 15.5514 61.6812 15.1822 61.0546 14.6548C60.4279 14.1273 60.1146 13.501 60.1146 12.7757C60.1146 12.1032 60.2946 11.5428 60.6546 11.0945C61.0146 10.6461 61.4945 10.3099 62.0945 10.0857C62.6945 9.86156 63.3544 9.74948 64.0744 9.74948C64.9677 9.74948 65.7343 9.90112 66.3743 10.2044C67.0276 10.5077 67.5542 10.9165 67.9542 11.4307C68.0875 11.6021 68.1408 11.7802 68.1142 11.9648C68.0875 12.1494 67.9808 12.301 67.7942 12.4197C67.6342 12.512 67.4475 12.545 67.2342 12.5186C67.0342 12.479 66.8609 12.3801 66.7142 12.2219C66.3809 11.8395 65.9943 11.5626 65.5543 11.3912C65.1143 11.2066 64.6077 11.1143 64.0344 11.1143C63.3011 11.1143 62.7145 11.2659 62.2745 11.5692C61.8345 11.8593 61.6145 12.2285 61.6145 12.6768C61.6145 12.9801 61.6945 13.2438 61.8545 13.468C62.0278 13.6922 62.3145 13.89 62.7145 14.0614C63.1278 14.2328 63.7011 14.3778 64.4344 14.4965C65.4343 14.6548 66.2209 14.8921 66.7942 15.2086C67.3809 15.5119 67.7942 15.8745 68.0342 16.2964C68.2875 16.7052 68.4141 17.1535 68.4141 17.6414C68.4141 18.2612 68.2275 18.8084 67.8542 19.2831C67.4942 19.7446 66.9876 20.1073 66.3343 20.371C65.6943 20.6347 64.9543 20.7666 64.1144 20.7666Z" fill="#0F172A"/>
<path d="M75.355 20.6677C74.6484 20.6677 74.0151 20.5028 73.4551 20.1732C72.9085 19.8435 72.4751 19.3952 72.1552 18.8282C71.8352 18.248 71.6752 17.5887 71.6752 16.8503V7.17816C71.6752 6.954 71.7419 6.76939 71.8752 6.62434C72.0218 6.47929 72.2085 6.40677 72.4352 6.40677C72.6618 6.40677 72.8485 6.47929 72.9951 6.62434C73.1418 6.76939 73.2151 6.954 73.2151 7.17816V16.8503C73.2151 17.5228 73.4151 18.0766 73.8151 18.5117C74.215 18.9337 74.7284 19.1447 75.355 19.1447H75.8949C76.1083 19.1447 76.2816 19.2172 76.4149 19.3622C76.5482 19.5073 76.6149 19.6919 76.6149 19.9161C76.6149 20.1402 76.5349 20.3248 76.3749 20.4699C76.2149 20.6017 76.0149 20.6677 75.775 20.6677H75.355ZM70.3753 11.5692C70.1753 11.5692 70.0086 11.5098 69.8753 11.3912C69.742 11.2593 69.6753 11.1011 69.6753 10.9165C69.6753 10.7187 69.742 10.5604 69.8753 10.4418C70.0086 10.3099 70.1753 10.244 70.3753 10.244H75.475C75.675 10.244 75.8416 10.3099 75.9749 10.4418C76.1083 10.5604 76.1749 10.7187 76.1749 10.9165C76.1749 11.1011 76.1083 11.2593 75.9749 11.3912C75.8416 11.5098 75.675 11.5692 75.475 11.5692H70.3753Z" fill="#0F172A"/>
<path d="M79.7616 14.002C79.8016 13.1845 80.0149 12.4527 80.4016 11.8065C80.8015 11.1604 81.3148 10.6527 81.9415 10.2835C82.5814 9.9143 83.2881 9.7297 84.0613 9.7297C84.6746 9.7297 85.1479 9.81541 85.4813 9.98683C85.8146 10.1582 85.9412 10.4088 85.8612 10.7384C85.8079 10.9362 85.7146 11.0681 85.5813 11.134C85.4613 11.2 85.3079 11.2263 85.1213 11.2131C84.948 11.2 84.748 11.1868 84.5213 11.1736C83.7747 11.1077 83.1081 11.1868 82.5214 11.4109C81.9481 11.6219 81.4882 11.9516 81.1415 12.3999C80.8082 12.8482 80.6415 13.3823 80.6415 14.002H79.7616ZM79.8816 20.6677C79.6416 20.6677 79.4549 20.6017 79.3216 20.4699C79.1883 20.338 79.1216 20.1534 79.1216 19.9161V10.6C79.1216 10.3626 79.1883 10.178 79.3216 10.0462C79.4549 9.9143 79.6416 9.84837 79.8816 9.84837C80.1216 9.84837 80.3082 9.9143 80.4416 10.0462C80.5749 10.178 80.6415 10.3626 80.6415 10.6V19.9161C80.6415 20.1534 80.5749 20.338 80.4416 20.4699C80.3082 20.6017 80.1216 20.6677 79.8816 20.6677Z" fill="#0F172A"/>
<path d="M92.3002 20.7666C91.247 20.7666 90.3137 20.5358 89.5004 20.0743C88.6871 19.5996 88.0471 18.9469 87.5805 18.1161C87.1272 17.2854 86.9005 16.336 86.9005 15.2679C86.9005 14.1866 87.1405 13.2306 87.6205 12.3999C88.1005 11.5692 88.7604 10.9231 89.6004 10.4615C90.4403 9.98683 91.3936 9.74948 92.4602 9.74948C93.5402 9.74948 94.4934 9.98683 95.3201 10.4615C96.16 10.9231 96.8133 11.5692 97.2799 12.3999C97.7599 13.2306 98.0066 14.1866 98.0199 15.2679L97.1199 15.7426C97.1199 16.7184 96.9133 17.5887 96.5 18.3535C96.0867 19.1051 95.5134 19.6985 94.7801 20.1336C94.0601 20.5556 93.2335 20.7666 92.3002 20.7666ZM92.5002 24.94C91.4469 24.94 90.5203 24.7422 89.7204 24.3466C88.9204 23.9642 88.2605 23.4368 87.7405 22.7643C87.5938 22.606 87.5272 22.4346 87.5405 22.25C87.5672 22.0654 87.6672 21.9138 87.8405 21.7951C88.0138 21.6764 88.2071 21.6369 88.4205 21.6764C88.6338 21.716 88.8004 21.8149 88.9204 21.9731C89.3071 22.4478 89.8004 22.8302 90.4003 23.1203C91.0136 23.4104 91.7203 23.5555 92.5202 23.5555C93.2668 23.5555 93.9401 23.3774 94.5401 23.0214C95.1401 22.6654 95.6134 22.1643 95.96 21.5182C96.32 20.8721 96.5 20.1138 96.5 19.2436V16.2371L97.0799 15.0899L98.0199 15.2679V19.3029C98.0199 20.371 97.7799 21.327 97.2999 22.1709C96.82 23.028 96.1667 23.7005 95.3401 24.1884C94.5134 24.6895 93.5668 24.94 92.5002 24.94ZM92.4602 19.382C93.2468 19.382 93.9401 19.2106 94.5401 18.8678C95.1534 18.5117 95.6334 18.0238 95.98 17.4041C96.3267 16.7843 96.5 16.0723 96.5 15.2679C96.5 14.4636 96.3267 13.7515 95.98 13.1317C95.6334 12.4988 95.1534 12.0109 94.5401 11.6681C93.9401 11.312 93.2468 11.134 92.4602 11.134C91.6736 11.134 90.9736 11.312 90.3603 11.6681C89.747 12.0109 89.2671 12.4988 88.9204 13.1317C88.5738 13.7515 88.4005 14.4636 88.4005 15.2679C88.4005 16.0723 88.5738 16.7843 88.9204 17.4041C89.2671 18.0238 89.747 18.5117 90.3603 18.8678C90.9736 19.2106 91.6736 19.382 92.4602 19.382Z" fill="#0F172A"/>
<path d="M61.7745 20.371L61.6809 20.6455L61.6809 20.6455L61.7745 20.371ZM59.8946 19.1842L60.1091 18.989L60.1073 18.9871L59.8946 19.1842ZM59.7146 18.6502L60.002 18.6889L60.002 18.6889L59.7146 18.6502ZM60.0146 18.1359L59.8473 17.8991L59.8376 17.9059L59.8285 17.9135L60.0146 18.1359ZM61.0946 18.2348L61.3138 18.0448L61.3081 18.0386L61.0946 18.2348ZM62.3545 19.0853L62.2514 19.3564L62.2537 19.3572L62.3545 19.0853ZM66.2543 18.8875L66.4282 19.1197L66.4325 19.1163L66.2543 18.8875ZM66.9342 17.6612L67.2242 17.6694V17.6612H66.9342ZM66.2543 16.4942L66.0882 16.7321L66.093 16.7353L66.2543 16.4942ZM64.0144 15.7624L64.0616 15.4762L64.0593 15.4759L64.0144 15.7624ZM61.0546 14.6548L61.2413 14.4329L61.2413 14.4329L61.0546 14.6548ZM60.6546 11.0945L60.4285 10.9129L60.4285 10.9129L60.6546 11.0945ZM66.3743 10.2044L66.2501 10.4665L66.2521 10.4674L66.3743 10.2044ZM67.9542 11.4307L67.7253 11.6088L67.7253 11.6088L67.9542 11.4307ZM68.1142 11.9648L68.4012 12.0062L68.4012 12.0062L68.1142 11.9648ZM67.7942 12.4197L67.9392 12.6711L67.9498 12.6644L67.7942 12.4197ZM67.2342 12.5186L67.1779 12.8031L67.1882 12.8051L67.1986 12.8064L67.2342 12.5186ZM66.7142 12.2219L66.4955 12.4125L66.5015 12.419L66.7142 12.2219ZM65.5543 11.3912L65.4421 11.6587L65.449 11.6614L65.5543 11.3912ZM62.2745 11.5692L62.4342 11.8113L62.4391 11.8079L62.2745 11.5692ZM61.8545 13.468L61.6183 13.6366L61.6251 13.6454L61.8545 13.468ZM62.7145 14.0614L62.6002 14.3279L62.6034 14.3292L62.7145 14.0614ZM64.4344 14.4965L64.388 14.7828L64.389 14.783L64.4344 14.4965ZM66.7942 15.2086L66.654 15.4626L66.6611 15.4662L66.7942 15.2086ZM68.0342 16.2964L67.7819 16.4399L67.7877 16.4492L68.0342 16.2964ZM67.8542 19.2831L67.6262 19.1038L67.6255 19.1048L67.8542 19.2831ZM66.3343 20.371L66.2257 20.1021L66.2238 20.1029L66.3343 20.371ZM73.4551 20.1732L73.3053 20.4215L73.308 20.4231L73.4551 20.1732ZM72.1552 18.8282L71.9012 18.9682L71.9026 18.9707L72.1552 18.8282ZM71.8752 6.62434L71.671 6.41792L71.6617 6.42809L71.8752 6.62434ZM72.9951 6.62434L72.7912 6.83053L72.7912 6.83053L72.9951 6.62434ZM73.8151 18.5117L73.6015 18.708L73.6046 18.7112L73.8151 18.5117ZM76.4149 19.3622L76.6284 19.166L76.6284 19.166L76.4149 19.3622ZM76.3749 20.4699L76.5596 20.6939L76.5697 20.6847L76.3749 20.4699ZM69.8753 11.3912L69.6714 11.5974L69.6768 11.6027L69.6825 11.6078L69.8753 11.3912ZM69.8753 10.4418L70.0681 10.6584L70.0738 10.6533L70.0792 10.6479L69.8753 10.4418ZM75.9749 10.4418L75.771 10.6479L75.7764 10.6533L75.7821 10.6584L75.9749 10.4418ZM75.9749 11.3912L76.1678 11.6078L76.1734 11.6027L76.1789 11.5974L75.9749 11.3912ZM79.7616 14.002L79.4719 13.9879L79.4571 14.292H79.7616V14.002ZM80.4016 11.8065L80.1549 11.6539L80.1527 11.6576L80.4016 11.8065ZM81.9415 10.2835L81.7965 10.0323L81.7943 10.0337L81.9415 10.2835ZM85.8612 10.7384L86.1413 10.814L86.1431 10.8068L85.8612 10.7384ZM85.5813 11.134L85.4526 10.8738L85.4416 10.8799L85.5813 11.134ZM85.1213 11.2131L85.0993 11.5023L85.1008 11.5024L85.1213 11.2131ZM84.5213 11.1736L84.4958 11.4626L84.5045 11.4631L84.5213 11.1736ZM82.5214 11.4109L82.6216 11.6831L82.6249 11.6818L82.5214 11.4109ZM81.1415 12.3999L80.912 12.2225L80.9088 12.2269L81.1415 12.3999ZM80.6415 14.002V14.292H80.9315V14.002H80.6415ZM79.3216 20.4699L79.1177 20.6761L79.1177 20.6761L79.3216 20.4699ZM79.3216 10.0462L79.5255 10.2524L79.5255 10.2524L79.3216 10.0462ZM80.4416 10.0462L80.2376 10.2524L80.2376 10.2524L80.4416 10.0462ZM80.4416 20.4699L80.2376 20.2637L80.2376 20.2637L80.4416 20.4699ZM89.5004 20.0743L89.3542 20.3248L89.3573 20.3265L89.5004 20.0743ZM87.5805 18.1161L87.3259 18.2551L87.3277 18.2582L87.5805 18.1161ZM87.6205 12.3999L87.8716 12.545L87.8716 12.545L87.6205 12.3999ZM89.6004 10.4615L89.7401 10.7157L89.7431 10.714L89.6004 10.4615ZM95.3201 10.4615L95.1756 10.7131L95.1804 10.7157L95.3201 10.4615ZM97.2799 12.3999L97.0271 12.5419L97.0288 12.545L97.2799 12.3999ZM98.0199 15.2679L98.3099 15.2679L98.3099 15.2643L98.0199 15.2679ZM97.1199 15.7426L96.9846 15.4861L96.8299 15.5677V15.7426H97.1199ZM96.5 18.3535L96.7541 18.4932L96.7551 18.4914L96.5 18.3535ZM94.7801 20.1336L94.9267 20.3838L94.9281 20.383L94.7801 20.1336ZM89.7204 24.3466L89.8489 24.0867L89.8455 24.085L89.7204 24.3466ZM87.7405 22.7643L87.9699 22.5869L87.962 22.5766L87.9532 22.5671L87.7405 22.7643ZM87.5405 22.25L87.2535 22.2086L87.252 22.2188L87.2513 22.2291L87.5405 22.25ZM87.8405 21.7951L88.0043 22.0344L88.0043 22.0344L87.8405 21.7951ZM88.4205 21.6764L88.3676 21.9616L88.3676 21.9616L88.4205 21.6764ZM88.9204 21.9731L88.6892 22.1484L88.6956 22.1562L88.9204 21.9731ZM90.4003 23.1203L90.2741 23.3814L90.2763 23.3825L90.4003 23.1203ZM94.5401 23.0214L94.3921 22.772L94.3921 22.772L94.5401 23.0214ZM95.96 21.5182L95.7066 21.377L95.7045 21.3811L95.96 21.5182ZM96.5 16.2371L96.2412 16.1063L96.21 16.168V16.2371H96.5ZM97.0799 15.0899L97.1339 14.805L96.9196 14.7644L96.8211 14.9591L97.0799 15.0899ZM97.2999 22.1709L97.0478 22.0275L97.0469 22.0292L97.2999 22.1709ZM95.3401 24.1884L95.1926 23.9386L95.1897 23.9404L95.3401 24.1884ZM94.5401 18.8678L94.684 19.1195L94.6857 19.1186L94.5401 18.8678ZM95.98 17.4041L96.2331 17.5456L96.2331 17.5456L95.98 17.4041ZM95.98 13.1317L95.7257 13.2711L95.7269 13.2733L95.98 13.1317ZM94.5401 11.6681L94.3921 11.9176L94.3986 11.9212L94.5401 11.6681ZM90.3603 11.6681L90.5019 11.9212L90.5059 11.9189L90.3603 11.6681ZM88.9204 13.1317L89.1735 13.2733L89.1748 13.271L88.9204 13.1317ZM88.9204 17.4041L88.6673 17.5456L88.6673 17.5456L88.9204 17.4041ZM90.3603 18.8678L90.2147 19.1186L90.2188 19.1209L90.3603 18.8678ZM64.1144 20.4766C63.3608 20.4766 62.6125 20.3504 61.8681 20.0965L61.6809 20.6455C62.4832 20.9191 63.2947 21.0566 64.1144 21.0566V20.4766ZM61.8681 20.0965C61.1344 19.8463 60.5516 19.4753 60.1091 18.989L59.6802 19.3794C60.1976 19.948 60.8681 20.3683 61.6809 20.6455L61.8681 20.0965ZM60.1073 18.9871C60.0141 18.8865 59.988 18.7933 60.002 18.6889L59.4272 18.6114C59.388 18.9027 59.4818 19.1655 59.6819 19.3814L60.1073 18.9871ZM60.002 18.6889C60.0178 18.5724 60.075 18.4635 60.2007 18.3583L59.8285 17.9135C59.6076 18.0984 59.4649 18.3323 59.4272 18.6114L60.002 18.6889ZM60.182 18.3728C60.3175 18.277 60.4388 18.2496 60.5567 18.2652L60.6325 17.6902C60.3504 17.653 60.085 17.7311 59.8473 17.8991L60.182 18.3728ZM60.5567 18.2652C60.691 18.2829 60.7949 18.3374 60.8811 18.4311L61.3081 18.0386C61.1275 17.8422 60.8982 17.7252 60.6325 17.6902L60.5567 18.2652ZM60.8754 18.4247C61.2309 18.8349 61.6929 19.1439 62.2514 19.3564L62.4576 18.8143C61.9761 18.6311 61.5982 18.3731 61.3137 18.0449L60.8754 18.4247ZM62.2537 19.3572C62.823 19.5684 63.4443 19.672 64.1144 19.672V19.092C63.5046 19.092 62.9526 18.9978 62.4553 18.8134L62.2537 19.3572ZM64.1144 19.672C65.1198 19.672 65.9116 19.5066 66.4282 19.1196L66.0804 18.6554C65.717 18.9277 65.0822 19.092 64.1144 19.092V19.672ZM66.4325 19.1163C66.9275 18.7306 67.2079 18.2461 67.2241 17.6694L66.6443 17.6531C66.6339 18.0258 66.461 18.3588 66.076 18.6588L66.4325 19.1163ZM67.2242 17.6612C67.2242 17.0741 66.9353 16.601 66.4155 16.2532L66.093 16.7353C66.4798 16.994 66.6442 17.299 66.6442 17.6612H67.2242ZM66.4203 16.2564C65.9121 15.9017 65.1123 15.6495 64.0616 15.4763L63.9672 16.0485C64.9963 16.2182 65.6898 16.4539 66.0883 16.732L66.4203 16.2564ZM64.0593 15.4759C62.7341 15.2683 61.8088 14.9105 61.2413 14.4329L60.8678 14.8766C61.5536 15.4539 62.6016 15.8346 63.9695 16.0489L64.0593 15.4759ZM61.2413 14.4329C60.6707 13.9525 60.4046 13.4037 60.4046 12.7757H59.8246C59.8246 13.5982 60.1852 14.3021 60.8678 14.8766L61.2413 14.4329ZM60.4046 12.7757C60.4046 12.1575 60.5689 11.6644 60.8807 11.276L60.4285 10.9129C60.0204 11.4212 59.8246 12.0489 59.8246 12.7757H60.4046ZM60.8807 11.276C61.2044 10.8729 61.6392 10.5654 62.196 10.3574L61.993 9.81407C61.3499 10.0544 60.8247 10.4194 60.4285 10.9129L60.8807 11.276ZM62.196 10.3574C62.7597 10.1468 63.3848 10.0395 64.0744 10.0395V9.45948C63.324 9.45948 62.6292 9.57636 61.993 9.81407L62.196 10.3574ZM64.0744 10.0395C64.9356 10.0395 65.6577 10.1857 66.2501 10.4665L66.4985 9.94234C65.8109 9.6165 64.9997 9.45948 64.0744 9.45948V10.0395ZM66.2521 10.4674C66.8681 10.7534 67.3565 11.1346 67.7253 11.6088L68.1831 11.2527C67.7519 10.6983 67.187 10.262 66.4964 9.94136L66.2521 10.4674ZM67.7253 11.6088C67.8188 11.7291 67.8407 11.8296 67.8271 11.9233L68.4012 12.0062C68.441 11.7307 68.3562 11.4752 68.1831 11.2527L67.7253 11.6088ZM67.8271 11.9233C67.8148 12.0085 67.7685 12.0924 67.6386 12.175L67.9498 12.6644C68.1932 12.5097 68.3602 12.2902 68.4012 12.0062L67.8271 11.9233ZM67.6493 12.1685C67.5525 12.2243 67.4312 12.2507 67.2698 12.2308L67.1986 12.8064C67.4639 12.8392 67.7159 12.7996 67.9391 12.6709L67.6493 12.1685ZM67.2905 12.2341C67.1542 12.2071 67.0346 12.1409 66.9269 12.0248L66.5015 12.419C66.6872 12.6194 66.9143 12.7509 67.1779 12.8031L67.2905 12.2341ZM66.9328 12.0313C66.5711 11.6163 66.1464 11.3106 65.6596 11.1209L65.449 11.6614C65.8421 11.8145 66.1908 12.0627 66.4956 12.4124L66.9328 12.0313ZM65.6665 11.1237C65.1846 10.9215 64.6386 10.8243 64.0344 10.8243V11.4043C64.5768 11.4043 65.0441 11.4916 65.4421 11.6586L65.6665 11.1237ZM64.0344 10.8243C63.2636 10.8243 62.6133 10.9834 62.1099 11.3304L62.4391 11.8079C62.8157 11.5484 63.3386 11.4043 64.0344 11.4043V10.8243ZM62.1149 11.3271C61.6101 11.6599 61.3245 12.1127 61.3245 12.6768H61.9045C61.9045 12.3443 62.059 12.0586 62.4341 11.8113L62.1149 11.3271ZM61.3245 12.6768C61.3245 13.0341 61.4198 13.3582 61.6185 13.6365L62.0906 13.2995C61.9692 13.1295 61.9045 12.9261 61.9045 12.6768H61.3245ZM61.6251 13.6454C61.8406 13.9241 62.1771 14.1466 62.6002 14.3279L62.8287 13.7948C62.4519 13.6333 62.2151 13.4603 62.0839 13.2906L61.6251 13.6454ZM62.6034 14.3292C63.0466 14.5131 63.645 14.6625 64.388 14.7828L64.4807 14.2102C63.7571 14.0931 63.2089 13.9525 62.8256 13.7935L62.6034 14.3292ZM64.389 14.783C65.3719 14.9385 66.1218 15.1686 66.6541 15.4625L66.9344 14.9547C66.3201 14.6156 65.4968 14.371 64.4797 14.2101L64.389 14.783ZM66.6611 15.4662C67.2153 15.7527 67.5782 16.0813 67.7821 16.4398L68.2862 16.1531C68.0102 15.6677 67.5465 15.271 66.9274 14.951L66.6611 15.4662ZM67.7877 16.4492C68.0121 16.8114 68.1241 17.2067 68.1241 17.6414H68.7041C68.7041 17.1004 68.5628 16.599 68.2807 16.1437L67.7877 16.4492ZM68.1241 17.6414C68.1241 18.198 67.9582 18.6817 67.6262 19.1039L68.0821 19.4624C68.4968 18.9351 68.7041 18.3244 68.7041 17.6414H68.1241ZM67.6255 19.1048C67.3027 19.5186 66.8413 19.8535 66.2257 20.1021L66.4428 20.6399C67.1338 20.361 67.6857 19.9707 68.0828 19.4615L67.6255 19.1048ZM66.2238 20.1029C65.6255 20.3494 64.9243 20.4766 64.1144 20.4766V21.0566C64.9844 21.0566 65.7631 20.92 66.4448 20.6391L66.2238 20.1029ZM75.355 20.3777C74.6954 20.3777 74.1137 20.2244 73.6022 19.9233L73.308 20.4231C73.9164 20.7813 74.6013 20.9577 75.355 20.9577V20.3777ZM73.6049 19.9249C73.1019 19.6215 72.7036 19.21 72.4077 18.6857L71.9026 18.9707C72.2466 19.5804 72.715 20.0655 73.3053 20.4215L73.6049 19.9249ZM72.4091 18.6881C72.1154 18.1556 71.9652 17.5454 71.9652 16.8503H71.3852C71.3852 17.632 71.555 18.3404 71.9012 18.9682L72.4091 18.6881ZM71.9652 16.8503V7.17816H71.3852V16.8503H71.9652ZM71.9652 7.17816C71.9652 7.01593 72.0114 6.90469 72.0887 6.82059L71.6617 6.42809C71.4723 6.63409 71.3852 6.89207 71.3852 7.17816H71.9652ZM72.0791 6.83053C72.1659 6.74473 72.2766 6.69677 72.4352 6.69677V6.11677C72.1404 6.11677 71.8778 6.21385 71.6713 6.41815L72.0791 6.83053ZM72.4352 6.69677C72.5937 6.69677 72.7044 6.74473 72.7912 6.83053L73.199 6.41815C72.9925 6.21386 72.7299 6.11677 72.4352 6.11677V6.69677ZM72.7912 6.83053C72.8777 6.9161 72.9251 7.02404 72.9251 7.17816H73.5051C73.5051 6.88395 73.4058 6.62268 73.199 6.41815L72.7912 6.83053ZM72.9251 7.17816V16.8503H73.5051V7.17816H72.9251ZM72.9251 16.8503C72.9251 17.5847 73.1456 18.2119 73.6016 18.708L74.0286 18.3155C73.6846 17.9413 73.5051 17.4608 73.5051 16.8503H72.9251ZM73.6046 18.7112C74.0639 19.1958 74.6556 19.4347 75.355 19.4347V18.8547C74.8011 18.8547 74.3662 18.6716 74.0255 18.3122L73.6046 18.7112ZM75.355 19.4347H75.8949V18.8547H75.355V19.4347ZM75.8949 19.4347C76.0346 19.4347 76.1279 19.4785 76.2014 19.5585L76.6284 19.166C76.4353 18.9559 76.1819 18.8547 75.8949 18.8547V19.4347ZM76.2014 19.5585C76.2787 19.6426 76.3249 19.7538 76.3249 19.9161H76.9049C76.9049 19.63 76.8178 19.372 76.6284 19.166L76.2014 19.5585ZM76.3249 19.9161C76.3249 20.0619 76.2769 20.1673 76.1801 20.255L76.5697 20.6847C76.7929 20.4824 76.9049 20.2185 76.9049 19.9161H76.3249ZM76.1905 20.2461C76.0904 20.3286 75.9588 20.3777 75.775 20.3777V20.9577C76.0711 20.9577 76.3394 20.8749 76.5594 20.6937L76.1905 20.2461ZM75.775 20.3777H75.355V20.9577H75.775V20.3777ZM70.3753 11.2792C70.2372 11.2792 70.1419 11.2402 70.0681 11.1745L69.6825 11.6078C69.8754 11.7795 70.1134 11.8592 70.3753 11.8592V11.2792ZM70.0792 11.185C70 11.1066 69.9653 11.0222 69.9653 10.9165H69.3853C69.3853 11.1799 69.4839 11.412 69.6714 11.5974L70.0792 11.185ZM69.9653 10.9165C69.9653 10.7914 70.0037 10.7157 70.0681 10.6584L69.6825 10.2251C69.4802 10.4052 69.3853 10.6459 69.3853 10.9165H69.9653ZM70.0792 10.6479C70.1544 10.5736 70.246 10.534 70.3753 10.534V9.95396C70.1045 9.95396 69.8629 10.0462 69.6714 10.2356L70.0792 10.6479ZM70.3753 10.534H75.475V9.95396H70.3753V10.534ZM75.475 10.534C75.6042 10.534 75.6958 10.5736 75.771 10.6479L76.1789 10.2356C75.9874 10.0462 75.7457 9.95396 75.475 9.95396V10.534ZM75.7821 10.6584C75.8465 10.7157 75.8849 10.7914 75.8849 10.9165H76.4649C76.4649 10.6459 76.37 10.4052 76.1678 10.2251L75.7821 10.6584ZM75.8849 10.9165C75.8849 11.0222 75.8502 11.1066 75.771 11.185L76.1789 11.5974C76.3663 11.412 76.4649 11.1799 76.4649 10.9165H75.8849ZM75.7821 11.1745C75.7084 11.2402 75.6131 11.2792 75.475 11.2792V11.8592C75.7369 11.8592 75.9748 11.7795 76.1678 11.6078L75.7821 11.1745ZM75.475 11.2792H70.3753V11.8592H75.475V11.2792ZM80.0512 14.0162C80.0891 13.242 80.2903 12.5572 80.6504 11.9554L80.1527 11.6576C79.7395 12.3481 79.5141 13.127 79.4719 13.9879L80.0512 14.0162ZM80.6481 11.9592C81.0245 11.3512 81.5044 10.8776 82.0887 10.5334L81.7943 10.0337C81.1253 10.4278 80.5786 10.9696 80.155 11.6539L80.6481 11.9592ZM82.0864 10.5347C82.6802 10.1921 83.3365 10.0197 84.0613 10.0197V9.4397C83.2396 9.4397 82.4827 9.63648 81.7965 10.0323L82.0864 10.5347ZM84.0613 10.0197C84.6545 10.0197 85.0745 10.1037 85.3486 10.2447L85.6139 9.72894C85.2214 9.52708 84.6948 9.4397 84.0613 9.4397V10.0197ZM85.3486 10.2447C85.4789 10.3117 85.5396 10.3791 85.5674 10.4341C85.5935 10.4857 85.6067 10.5577 85.5794 10.6701L86.1431 10.8068C86.1958 10.5895 86.1856 10.3715 86.085 10.1725C85.9862 9.97692 85.8169 9.83336 85.6139 9.72894L85.3486 10.2447ZM85.5812 10.6629C85.5411 10.812 85.4864 10.8574 85.4527 10.8741L85.7098 11.394C85.9428 11.2788 86.0748 11.0605 86.1412 10.8139L85.5812 10.6629ZM85.4416 10.8799C85.3853 10.9108 85.2925 10.9345 85.1417 10.9239L85.1008 11.5024C85.3234 11.5181 85.5372 11.4891 85.7209 11.3882L85.4416 10.8799ZM85.1433 10.924C84.9678 10.9106 84.766 10.8973 84.5382 10.8841L84.5045 11.4631C84.7299 11.4762 84.9281 11.4893 85.0993 11.5023L85.1433 10.924ZM84.5468 10.8847C83.7648 10.8157 83.0528 10.8974 82.4179 11.14L82.6249 11.6818C83.1633 11.4761 83.7846 11.3997 84.4958 11.4625L84.5468 10.8847ZM82.4213 11.1388C81.801 11.3671 81.2947 11.7277 80.9121 12.2225L81.3709 12.5773C81.6816 12.1754 82.0953 11.8768 82.6216 11.6831L82.4213 11.1388ZM80.9088 12.2269C80.5342 12.7307 80.3515 13.3271 80.3515 14.002H80.9315C80.9315 13.4374 81.0822 12.9658 81.3742 12.5729L80.9088 12.2269ZM80.6415 13.712H79.7616V14.292H80.6415V13.712ZM79.8816 20.3777C79.6956 20.3777 79.5905 20.328 79.5255 20.2637L79.1177 20.6761C79.3194 20.8755 79.5876 20.9577 79.8816 20.9577V20.3777ZM79.5255 20.2637C79.461 20.1999 79.4116 20.0976 79.4116 19.9161H78.8316C78.8316 20.2092 78.9156 20.4762 79.1177 20.6761L79.5255 20.2637ZM79.4116 19.9161V10.6H78.8316V19.9161H79.4116ZM79.4116 10.6C79.4116 10.4184 79.461 10.3162 79.5255 10.2524L79.1177 9.83998C78.9156 10.0399 78.8316 10.3069 78.8316 10.6H79.4116ZM79.5255 10.2524C79.5905 10.1881 79.6956 10.1384 79.8816 10.1384V9.55837C79.5876 9.55837 79.3194 9.64052 79.1177 9.83998L79.5255 10.2524ZM79.8816 10.1384C80.0676 10.1384 80.1727 10.1881 80.2376 10.2524L80.6455 9.83998C80.4438 9.64052 80.1756 9.55837 79.8816 9.55837V10.1384ZM80.2376 10.2524C80.3022 10.3162 80.3515 10.4184 80.3515 10.6H80.9315C80.9315 10.3069 80.8476 10.0399 80.6455 9.83998L80.2376 10.2524ZM80.3515 10.6V19.9161H80.9315V10.6H80.3515ZM80.3515 19.9161C80.3515 20.0976 80.3022 20.1999 80.2376 20.2637L80.6455 20.6761C80.8476 20.4762 80.9315 20.2092 80.9315 19.9161H80.3515ZM80.2376 20.2637C80.1727 20.328 80.0676 20.3777 79.8816 20.3777V20.9577C80.1756 20.9577 80.4438 20.8755 80.6455 20.6761L80.2376 20.2637ZM92.3002 20.4766C91.2907 20.4766 90.4079 20.2558 89.6435 19.8221L89.3573 20.3265C90.2195 20.8158 91.2032 21.0566 92.3002 21.0566V20.4766ZM89.6466 19.8238C88.8784 19.3755 88.275 18.7604 87.8334 17.9741L87.3277 18.2582C87.8193 19.1333 88.4958 19.8237 89.3542 20.3247L89.6466 19.8238ZM87.8351 17.9772C87.4079 17.1943 87.1905 16.2938 87.1905 15.2679H86.6105C86.6105 16.3782 86.8465 17.3765 87.3259 18.255L87.8351 17.9772ZM87.1905 15.2679C87.1905 14.231 87.4202 13.3262 87.8716 12.545L87.3694 12.2548C86.8608 13.135 86.6105 14.1423 86.6105 15.2679H87.1905ZM87.8716 12.545C88.3251 11.7601 88.9466 11.1517 89.74 10.7157L89.4607 10.2074C88.5743 10.6944 87.8758 11.3783 87.3694 12.2548L87.8716 12.545ZM89.7431 10.714C90.535 10.2664 91.4382 10.0395 92.4602 10.0395V9.45948C91.349 9.45948 90.3457 9.70723 89.4577 10.2091L89.7431 10.714ZM92.4602 10.0395C93.4963 10.0395 94.3986 10.2668 95.1756 10.713L95.4645 10.2101C94.5883 9.7069 93.584 9.45948 92.4602 9.45948V10.0395ZM95.1804 10.7157C95.9732 11.1513 96.5871 11.7587 97.0271 12.5419L97.5328 12.2579C97.0395 11.3796 96.3468 10.6948 95.4597 10.2074L95.1804 10.7157ZM97.0288 12.545C97.4809 13.3274 97.7171 14.2335 97.7299 15.2715L98.3099 15.2643C98.296 14.1398 98.0389 13.1339 97.531 12.2548L97.0288 12.545ZM97.8846 15.0114L96.9846 15.4861L97.2552 15.9991L98.1552 15.5244L97.8846 15.0114ZM96.8299 15.7426C96.8299 16.6762 96.6326 17.4981 96.2449 18.2156L96.7551 18.4914C97.194 17.6792 97.4099 16.7605 97.4099 15.7426H96.8299ZM96.2459 18.2138C95.8573 18.9203 95.3206 19.4757 94.6321 19.8842L94.9281 20.383C95.7062 19.9213 96.316 19.2899 96.7541 18.4932L96.2459 18.2138ZM94.6335 19.8834C93.9631 20.2763 93.1882 20.4766 92.3002 20.4766V21.0566C93.2788 21.0566 94.1572 20.8348 94.9267 20.3838L94.6335 19.8834ZM92.5002 24.65C91.4835 24.65 90.6023 24.4592 89.8489 24.0867L89.5918 24.6066C90.4383 25.0252 91.4103 25.23 92.5002 25.23V24.65ZM89.8455 24.085C89.0846 23.7213 88.461 23.222 87.9699 22.5869L87.5111 22.9417C88.06 23.6516 88.7563 24.2072 89.5953 24.6083L89.8455 24.085ZM87.9532 22.5671C87.8513 22.4572 87.8232 22.3619 87.8298 22.2709L87.2513 22.2291C87.2312 22.5073 87.3364 22.7549 87.5278 22.9614L87.9532 22.5671ZM87.8275 22.2915C87.8411 22.1977 87.8886 22.1136 88.0043 22.0344L87.6767 21.5558C87.4458 21.7139 87.2933 21.9331 87.2535 22.2086L87.8275 22.2915ZM88.0043 22.0344C88.112 21.9606 88.227 21.9355 88.3676 21.9616L88.4733 21.3913C88.1873 21.3382 87.9156 21.3922 87.6767 21.5558L88.0043 22.0344ZM88.3676 21.9616C88.517 21.9893 88.6172 22.0532 88.6894 22.1483L89.1515 21.7979C88.9837 21.5766 88.7505 21.4427 88.4733 21.3913L88.3676 21.9616ZM88.6956 22.1562C89.1113 22.6667 89.6394 23.0745 90.2741 23.3814L90.5266 22.8592C89.9614 22.5859 89.5028 22.229 89.1453 21.79L88.6956 22.1562ZM90.2763 23.3825C90.9347 23.6939 91.685 23.8455 92.5202 23.8455V23.2655C91.7555 23.2655 91.0925 23.1269 90.5243 22.8582L90.2763 23.3825ZM92.5202 23.8455C93.3151 23.8455 94.0402 23.6553 94.6881 23.2708L94.3921 22.772C93.8401 23.0996 93.2185 23.2655 92.5202 23.2655V23.8455ZM94.6881 23.2708C95.3358 22.8864 95.8453 22.3455 96.2156 21.6553L95.7045 21.3811C95.3815 21.9832 94.9443 22.4443 94.3921 22.772L94.6881 23.2708ZM96.2133 21.6593C96.6013 20.963 96.79 20.1545 96.79 19.2436H96.21C96.21 20.0732 96.0387 20.7811 95.7067 21.377L96.2133 21.6593ZM96.79 19.2436V16.2371H96.21V19.2436H96.79ZM96.7588 16.3679L97.3388 15.2207L96.8211 14.9591L96.2412 16.1063L96.7588 16.3679ZM97.026 15.3748L97.9659 15.5528L98.0739 14.983L97.1339 14.805L97.026 15.3748ZM97.7299 15.2679V19.3029H98.3099V15.2679H97.7299ZM97.7299 19.3029C97.7299 20.3259 97.5005 21.2316 97.0479 22.0275L97.552 22.3143C98.0593 21.4224 98.3099 20.4161 98.3099 19.3029H97.7299ZM97.0469 22.0292C96.5914 22.8427 95.9741 23.4774 95.1926 23.9386L95.4875 24.4381C96.3593 23.9236 97.0486 23.2133 97.553 22.3126L97.0469 22.0292ZM95.1897 23.9404C94.413 24.4112 93.5195 24.65 92.5002 24.65V25.23C93.6142 25.23 94.6138 24.9677 95.4904 24.4364L95.1897 23.9404ZM92.4602 19.672C93.2902 19.672 94.0344 19.4907 94.684 19.1195L94.3962 18.616C93.8458 18.9305 93.2035 19.092 92.4602 19.092V19.672ZM94.6857 19.1186C95.344 18.7364 95.8611 18.2107 96.2331 17.5456L95.7269 17.2625C95.4056 17.8369 94.9628 18.2871 94.3945 18.6169L94.6857 19.1186ZM96.2331 17.5456C96.607 16.8772 96.79 16.1152 96.79 15.2679H96.21C96.21 16.0294 96.0463 16.6915 95.7269 17.2625L96.2331 17.5456ZM96.79 15.2679C96.79 14.4207 96.607 13.6587 96.2331 12.9902L95.7269 13.2733C96.0463 13.8443 96.21 14.5064 96.21 15.2679H96.79ZM96.2344 12.9924C95.8623 12.3131 95.3438 11.7851 94.6816 11.4149L94.3986 11.9212C94.963 12.2367 95.4044 12.6845 95.7257 13.271L96.2344 12.9924ZM94.6881 11.4187C94.0378 11.0328 93.2921 10.844 92.4602 10.844V11.424C93.2015 11.424 93.8424 11.5913 94.3921 11.9175L94.6881 11.4187ZM92.4602 10.844C91.6282 10.844 90.877 11.0328 90.2147 11.4173L90.5059 11.9189C91.0703 11.5913 91.719 11.424 92.4602 11.424V10.844ZM90.2188 11.4149C89.5566 11.7851 89.0382 12.3131 88.6661 12.9924L89.1748 13.271C89.496 12.6845 89.9375 12.2367 90.5018 11.9212L90.2188 11.4149ZM88.6673 12.9902C88.2934 13.6587 88.1105 14.4207 88.1105 15.2679H88.6905C88.6905 14.5064 88.8541 13.8443 89.1735 13.2733L88.6673 12.9902ZM88.1105 15.2679C88.1105 16.1152 88.2934 16.8772 88.6673 17.5456L89.1735 17.2625C88.8541 16.6915 88.6905 16.0294 88.6905 15.2679H88.1105ZM88.6673 17.5456C89.0393 18.2107 89.5564 18.7364 90.2147 19.1186L90.5059 18.6169C89.9377 18.2871 89.4948 17.8369 89.1735 17.2625L88.6673 17.5456ZM90.2188 19.1209C90.8804 19.4907 91.6301 19.672 92.4602 19.672V19.092C91.7171 19.092 91.0669 18.9305 90.5018 18.6146L90.2188 19.1209Z" fill="#0F172A" mask="url(#path-4-outside-1_5199_10354)"/>
</svg>
